<svg xmlns="http://www.w3.org/2000/svg" viewBox="0 0 479.8 142.8"><path d="M354.3 51.9zM348 46l-1.7 7.2c3.4 0 9.4.5 9.4-4.4.1-3.7-5.3-2.8-7.7-2.8zm44.4-.3zm-10.6 5.1c-2.8 5.3-3.6 17.4 5.7 15 9.2-2.3 12.3-23.1.6-20.3-2.8.7-5 2.8-6.3 5.3zm79.3-4.7l-1.9 8.2c2.6 0 5.5.1 7.6-1.4 2.4-1.8 3.6-6.7-2.9-6.7h-2.8v-.1zm14.6-6c8 4.9 5.6 22.4-15.8 22.4h-2.6l-2.5 11h-10.6l8.2-35.5c6-.1 18.1-1.1 23.3 2.1zm-63 31.5zm9.2-6.1zm19.2-5.4c0-1.3 4.4-18.9 5.1-22.2h-10.7c-1 4.3-4.6 22-6 24.7-2.1 4.1-9.9 4.6-9.9-.3 0-2.8 4.5-20.6 5.4-24.5h-10.7c-1.1 4.6-5.2 20.4-5.5 24.6-.7 8.9 6.6 11.6 14.4 11.6 10 .1 15.6-4.2 17.9-13.9zm-59.2-21zm20.5 2zm4.2 10.3c0 24.7-30.7 29.3-36.7 14.4-4.3-10.9 3.7-28.5 21.1-28.5 8.8 0 15.6 4.9 15.6 14.1zm-43.4-11.2c6.7 4.1 4.7 14.9-4.9 18.6l8 14.6h-11.8l-6.3-12.3h-3.5l-2.8 12.3h-10.6l8.2-35.5c6.8 0 18.2-1.1 23.7 2.3zm-44.6 33.1zm6.5-35.4zm4.4 16.3l.3-1.1h-17.4l-1.9 8.2h6.7L316 66c-5.4.3-9.9-.7-9.9-6.9 0-11.1 10.4-17.6 19.2-11.5 3 2.1 1.5 2.3 4.9 2.3l2.3-9.3c-9.7-5.1-22.7-5-30.8 3-5.4 5.3-8.5 15.1-5.4 22.4 4.7 11.2 20.1 8.4 29.3 5.2l3.9-17zm-81-41c-4.9-3.7-11.9-8.2-21.8-9.5 13.3 9.1 14.6 30.1 3.3 46.6-2.9-28.8-39.1-55.5-66.6-49.4 36.2 14.6 50.6 68.4 18 112.9 19.5-12.7 50.1-35.8 66-58.1 8.4-11.9 16.5-31 1.1-42.5zm11.2 5c49.2 28-21.7 72.4-26.8 77.6 17.4-4.2 33.1-23.5 62.6-8.3-28.2 5.7-82.5 30.8-108.5 25.8 20.9-11.9 56.9-40.9 68.3-61.4 6.3-9.4 8.7-27.8 4.4-33.7z" fill-rule="evenodd" clip-rule="evenodd" fill="#4d59a1"/><path d="M22.5 50.4zm.8-.9c2-4-4.4-3.3-6.4-3.3l-1.2 5.2c2.3 0 6.4.5 7.6-1.9zM21 64.4zm-.8-5.2c-1.8-.3-4.3-.2-6.2-.2l-1.5 6.5c3.1 0 10.2.7 10.2-3.9 0-.5-.1-.9-.2-1.2-.5-.8-1.4-1-2.3-1.2zm149.6 4.2zm.4-.7zm.2-.8zm-8.4-3.3l-1.6 6.9c3.3 0 11 .7 10.1-5-.5-2.7-7-1.9-8.5-1.9zm13.7 12.1zm-2.4 1.4zm5-19.2zm-3.8-1.7c12.5 3.1 7.5 20.8-6.4 22.3-5.2.5-14.5.2-20.2.2l8.2-35.5h10.6l-2.9 12.5c3.4-.1 7.5-.3 10.7.5zm-55.3 19.1zM108 73.7c15.3 1.1 17.7-14.6 21.2-27.4h7.7l-6.3 27.2h10.6l8.2-35.5H121c-1.3 5.7-2.7 11.9-4.5 17.4-2.9 9.1-4.2 8.7-9.1 8.7l-2.1 9.2 2.7.4zm5.9-11.9zm-6.9-.9zm-4.9 7.3zm-22.8 5.2zm16.8-26.6zm8.4-5.6zm-10.6 4.5zm-.7-8.3c22.3 0 19 28.7 1.6 35.3-7.1 2.7-15 1.6-21.7-1.4l2.1-8.9h2c5.6 6.5 16.5 4.9 19.7-3.2h-15l1.8-8.1h14.5c-.5-8.3-11.5-6.3-17.7-1.7-.6.5-1.9.2-2.7.2l2.1-9.3c4.2-1.8 8.7-2.9 13.3-2.9zm-17.4 1.8l.3-1.1H65.2l-15.5 18 4.2-18H43.4l-8.2 35.5h9.9l17.1-20-4.7 20h10.4l7.9-34.4zM32.7 52.3zm-2.4 1.9zm-.6.8c6.9 3.8 5.4 18.5-13.9 18.5H0L8.2 38c5.2 0 13.7-.5 18.6.5 9.9 2.1 10.3 12.6 2.5 16.2l.4.3zm199.5 65.7c-25.5 8.9-42 6.2-47.4-1.4 5.4 7.6 23.6 15 48.6 4.1 19.9-8.7 39.7-13.9 63.4-22-23.2 5.4-43.7 12-64.6 19.3zm102.5-37.9l.4.7L298 99.2c0 5.2-2.6 9.9-5.5 12.9-10.8 10.9-13.4 8.3-18.8 25.9-9.7-8.6-35.2-3.3-54.1-.5-17.1 2.5-32.5-2.5-42.3-9.6l.1.6c9.6 7.5 24.6 12.9 41.3 11.3 18.3-1.8 48.9-8.8 53.8 1.8-11.6-7.1-45.1.4-55 1.1-17.9 1.2-33-4.6-42.3-13.1-.9-6.7-1.1-12.8-2-19.5 10.5 15 51.9 3.9 69.7-2.2 32.3-11.1 69.6-19.9 88.8-25.1z" fill="#c36f3f" fill-rule="evenodd" clip-rule="evenodd"/></svg>